# Tiled2Unity generated file. Do not modify by hand.
# Wavefront file for 'sample-map_mesh_0002.obj'

# Vertices (Count = 64)
v -1664 -384 0
v -1792 -384 0
v -1792 -256 0
v -1664 -256 0
v 0 -2176 0
v -128 -2176 0
v -128 -2048 0
v 0 -2048 0
v -9472 -2688 0
v -9600 -2688 0
v -9600 -2560 0
v -9472 -2560 0
v -1920 -5120 0
v -2048 -5120 0
v -2048 -4992 0
v -1920 -4992 0
v -1792 -5248 0
v -1920 -5248 0
v -1920 -5120 0
v -1792 -5120 0
v -8576 -5376 0
v -8704 -5376 0
v -8704 -5248 0
v -8576 -5248 0
v -8320 -5504 0
v -8448 -5504 0
v -8448 -5376 0
v -8320 -5376 0
v -384 -5504 0
v -512 -5504 0
v -512 -5376 0
v -384 -5376 0
v -9472 -5632 0
v -9600 -5632 0
v -9600 -5504 0
v -9472 -5504 0
v -2560 -6016 0
v -2688 -6016 0
v -2688 -5888 0
v -2560 -5888 0
v -4864 -7168 0
v -4992 -7168 0
v -4992 -7040 0
v -4864 -7040 0
v -128 -7424 0
v -256 -7424 0
v -256 -7296 0
v -128 -7296 0
v -128 -7808 0
v -256 -7808 0
v -256 -7680 0
v -128 -7680 0
v -6016 -8064 0
v -6144 -8064 0
v -6144 -7936 0
v -6016 -7936 0
v -8320 -9600 0
v -8448 -9600 0
v -8448 -9472 0
v -8320 -9472 0
v -7680 -9600 0
v -7808 -9600 0
v -7808 -9472 0
v -7680 -9472 0

# Texture cooridinates (Count = 8)
vt 0.003771705 0.5293192
vt 0.4706809 0.5293192
vt 0.4706809 0.9962283
vt 0.003771705 0.9962283
vt 0.5001221 0.03296876
vt 0.9670312 0.03296876
vt 0.9670312 0.4998779
vt 0.5001221 0.4998779

# Normal
vn 0 0 -1

# Mesh description
g sample-map_mesh_0002

# Faces
f 1/1/1 2/2/1 3/3/1 4/4/1
f 5/1/1 6/2/1 7/3/1 8/4/1
f 9/1/1 10/2/1 11/3/1 12/4/1
f 13/5/1 14/6/1 15/7/1 16/8/1
f 17/5/1 18/6/1 19/7/1 20/8/1
f 21/5/1 22/6/1 23/7/1 24/8/1
f 25/1/1 26/2/1 27/3/1 28/4/1
f 29/1/1 30/2/1 31/3/1 32/4/1
f 33/5/1 34/6/1 35/7/1 36/8/1
f 37/1/1 38/2/1 39/3/1 40/4/1
f 41/1/1 42/2/1 43/3/1 44/4/1
f 45/1/1 46/2/1 47/3/1 48/4/1
f 49/5/1 50/6/1 51/7/1 52/8/1
f 53/1/1 54/2/1 55/3/1 56/4/1
f 57/5/1 58/6/1 59/7/1 60/8/1
f 61/5/1 62/6/1 63/7/1 64/8/1

